#!OML:ASF E:\acrobat2\Project_11_07_03\Capture day 1\Session 1\Acrobat.ASF
:FULLY-SPECIFIED
:DEGREES
586
root 2.39418 18.4417 29.2724 370.445 -81.8411 -2.0017
lowerback 0.0334163 0.249551 -0.780861
upperback -2.25861 0.30699 0.0113986
thorax -2.33766 0.162179 0.443062
lowerneck -0.271071 -1.80746 -1.68082
upperneck -0.336661 -2.42255 5.11862
head 0.029716 -1.22028 1.87002
rclavicle -1.24551e-014 2.18663e-015
rhumerus -18.9511 -41.6429 0.147421
rradius 23.346
rwrist -0.904931
rhand -15.9684 -45.6074
rfingers 7.12502
rthumb 10.2307 -435.339
lclavicle -1.24551e-014 2.18663e-015
lhumerus -9.63293 23.8021 6.04899
lradius 23.6465
lwrist 12.2222
lhand -23.3405 -11.9413
lfingers 7.12502
lthumb 3.11426 18.0157
rfemur 2.18465 12.7362 1.8577
rtibia -0.151058
rfoot -23.5336 -31.6098
rtoes 23.9766
lfemur 2.83029 -12.6671 -9.91973
ltibia -5.335
lfoot -25.9577 6.30222
ltoes 48.7649
587
root 2.36659 18.4371 29.2737 370.348 -81.759 -2.02525
lowerback -0.100697 0.286013 -0.883807
upperback -2.34836 0.35254 -0.0348647
thorax -2.35561 0.186097 0.45278
lowerneck -0.109607 -1.84121 -1.6181
upperneck -0.29941 -2.46764 4.88201
head 0.0115909 -1.24352 1.78394
rclavicle -4.9634e-015 -1.68967e-015
rhumerus -18.836 -39.396 -0.359525
rradius 23.6409
rwrist -2.29175
rhand -16.1064 -45.7602
rfingers 7.12502
rthumb 10.0975 -435.498
lclavicle -4.9634e-015 -1.68967e-015
lhumerus -8.58151 25.8433 5.74659
lradius 22.7961
lwrist 10.0937
lhand -22.8451 -12.8168
lfingers 7.12502
lthumb 3.59272 17.1327
rfemur 2.51595 12.9723 2.02586
rtibia -0.177311
rfoot -23.9345 -31.4507
rtoes 23.7523
lfemur 3.09128 -12.724 -9.95747
ltibia -5.41781
lfoot -25.8493 6.27757
ltoes 48.4794
588
root 2.33771 18.4314 29.274 370.546 -81.6234 -2.32682
lowerback -0.287183 0.436373 -0.792388
upperback -2.38278 0.552677 -0.147078
thorax -2.28698 0.282393 0.283933
lowerneck -0.134966 -1.99504 -1.71446
upperneck -0.230693 -2.67497 4.89167
head 0.0457985 -1.34571 1.80262
rclavicle -2.60905e-016 -4.27387e-015
rhumerus -19.2435 -43.6783 0.672087
rradius 22.9042
rwrist 2.78103
rhand -15.9808 -45.2403
rfingers 7.12502
rthumb 10.2187 -434.972
lclavicle -2.60905e-016 -4.27387e-015
lhumerus -8.1727 22.9546 5.42485
lradius 23.948
lwrist 12.6769
lhand -23.0219 -12.0304
lfingers 7.12502
lthumb 3.42196 17.9219
rfemur 2.8121 12.9093 2.21863
rtibia -0.135616
rfoot -24.223 -31.251
rtoes 24.2771
lfemur 3.32094 -12.8642 -9.93867
ltibia -5.4822
lfoot -25.8237 6.31765
ltoes 48.1033
589
root 2.30884 18.4232 29.2735 370.255 -81.4122 -2.15637
lowerback -0.466683 0.335485 -0.908299
upperback -2.40611 0.415229 -0.264346
thorax -2.2086 0.213965 0.232082
lowerneck -0.232224 -2.01064 -1.23353
upperneck -0.140965 -2.69873 4.54398
head 0.0785856 -1.35548 1.6048
rclavicle -3.0265e-014 3.57812e-015
rhumerus -18.9818 -41.1972 -0.211602
rradius 23.1886
rwrist 1.07545
rhand -16.4624 -45.5775
rfingers 7.12502
rthumb 9.75402 -435.332
lclavicle -3.0265e-014 3.57812e-015
lhumerus -7.06731 25.41 4.96808
lradius 23.0083
lwrist 10.1354
lhand -22.7973 -12.3243
lfingers 7.12502
lthumb 3.63886 17.6244
rfemur 3.14961 12.4833 2.29478
rtibia -0.098936
rfoot -24.2496 -30.9845
rtoes 24.3276
lfemur 3.50955 -12.7403 -9.95685
ltibia -5.49435
lfoot -25.5507 6.35544
ltoes 47.7236
590
root 2.28181 18.4128 29.266 368.906 -81.3058 -0.906646
lowerback -0.614124 0.391427 -1.19979
upperback -2.4474 0.486128 -0.355948
thorax -2.17095 0.253458 0.301278
lowerneck -0.233037 -2.18469 -1.21367
upperneck -0.130076 -2.92847 4.25267
head 0.0840393 -1.46917 1.50754
rclavicle 4.84538e-016 5.76476e-015
rhumerus -18.9964 -40.9921 -0.132706
rradius 23.015
rwrist 1.73922
rhand -16.3157 -45.7873
rfingers 7.12502
rthumb 9.89561 -435.535
lclavicle 4.84538e-016 5.76476e-015
lhumerus -7.9803 21.0789 4.04262
lradius 25.1812
lwrist 14.3728
lhand -23.1146 -10.7451
lfingers 7.12502
lthumb 3.33242 19.2086
rfemur 3.46273 12.3689 2.19586
rtibia -0.0886923
rfoot -25.5832 -30.3303
rtoes 26.9611
lfemur 3.72646 -12.9234 -10.1719
ltibia -5.57893
lfoot -25.7423 6.49771
ltoes 47.2986
591
root 2.25495 18.4028 29.2526 367.912 -81.2148 0.0131677
lowerback -0.74852 0.457656 -1.49925
upperback -2.57255 0.570342 -0.381596
thorax -2.22855 0.300925 0.442006
lowerneck 0.0182361 -2.29697 -1.48377
upperneck -0.12914 -3.07635 4.13763
head 0.0489811 -1.54467 1.5206
rclavicle 7.74018e-015 -1.03368e-014
rhumerus -19.0524 -39.8711 -0.0626215
rradius 23.0639
rwrist 1.65656
rhand -15.8662 -46.2497
rfingers 7.12502
rthumb 10.3293 -435.976
lclavicle 7.74018e-015 -1.03368e-014
lhumerus -6.98338 22.0277 4.00224
lradius 24.4927
lwrist 13.1365
lhand -22.6974 -10.5416
lfingers 7.12502
lthumb 3.73536 19.4054
rfemur 3.78282 12.8933 2.2669
rtibia -0.148586
rfoot -27.5213 -29.8683
rtoes 29.2988
lfemur 3.9056 -13.1659 -10.2809
ltibia -5.66657
lfoot -26.0567 6.36128
ltoes 47.2845
592
root 2.22842 18.3912 29.2408 367.624 -80.9966 0.199814
lowerback -0.860669 0.209073 -1.78326
upperback -2.7197 0.233113 -0.417311
thorax -2.31218 0.137696 0.568658
lowerneck 0.335327 -2.08656 -1.02266
upperneck -0.0427019 -2.79664 3.72211
head 0.00141699 -1.40684 1.31348
rclavicle -1.56481e-014 -4.77083e-015
rhumerus -18.551 -36.0329 -1.34806
rradius 23.6371
rwrist -1.10375
rhand -15.9488 -46.7793
rfingers 7.12502
rthumb 10.2495 -436.51
lclavicle -1.56481e-014 -4.77083e-015
lhumerus -6.31515 23.5141 3.36352
lradius 23.7194
lwrist 11.2435
lhand -22.1472 -10.5939
lfingers 7.12502
lthumb 4.2666 19.3431
rfemur 4.23695 13.4903 2.5428
rtibia -0.303672
rfoot -29.0257 -29.6509
rtoes 30.1194
lfemur 4.01328 -12.9693 -10.2304
ltibia -5.62384
lfoot -25.9246 5.70527
ltoes 48.2019
593
root 2.20311 18.3758 29.2283 368.05 -80.7956 -0.324057
lowerback -1.02448 0.312194 -1.7328
upperback -2.68322 0.375462 -0.417141
thorax -2.18541 0.206757 0.539957
lowerneck 0.0534699 -2.24002 -1.20623
upperneck 0.111101 -3.00272 3.49383
head 0.0996475 -1.50472 1.2679
rclavicle 8.49804e-015 1.98785e-016
rhumerus -18.7834 -38.1619 -0.588192
rradius 23.1791
rwrist 1.63451
rhand -15.8039 -46.5076
rfingers 7.12502
rthumb 10.3894 -436.231
lclavicle 8.49804e-015 1.98785e-016
lhumerus -6.12173 20.8871 2.92712
lradius 24.4722
lwrist 13.7379
lhand -22.2643 -10.0441
lfingers 7.12502
lthumb 4.15359 19.8952
rfemur 4.689 13.8805 2.92227
rtibia -0.49893
rfoot -29.7726 -29.6436
rtoes 29.4561
lfemur 4.14724 -12.8637 -10.083
ltibia -5.62283
lfoot -26.0203 4.97976
ltoes 49.2562
594
root 2.18035 18.36 29.2158 368.695 -80.6238 -1.06241
lowerback -1.25023 0.288595 -1.74621
upperback -2.63505 0.350035 -0.399428
thorax -2.00868 0.192995 0.567261
lowerneck -0.138407 -2.26809 -1.14718
upperneck 0.201723 -3.04049 3.31924
head 0.156251 -1.52089 1.19972
rclavicle -5.00751e-014 3.37934e-015
rhumerus -18.6184 -39.8633 -0.429504
rradius 22.7659
rwrist 3.80885
rhand -15.6835 -46.0145
rfingers 7.12502
rthumb 10.5054 -435.732
lclavicle -5.00751e-014 3.37934e-015
lhumerus -6.04149 20.284 2.41248
lradius 24.8466
lwrist 14.3603
lhand -22.282 -9.80509
lfingers 7.12502
lthumb 4.13642 20.1345
rfemur 5.10977 14.0909 3.3046
rtibia -0.723625
rfoot -30.0933 -29.7198
rtoes 27.5534
lfemur 4.29744 -12.7322 -9.8684
ltibia -5.68785
lfoot -26.033 4.22441
ltoes 50.1872
595
root 2.15938 18.3454 29.2059 367.422 -80.3645 0.0541639
lowerback -1.3678 0.115676 -2.05212
upperback -2.62008 0.119839 -0.495209
thorax -1.92309 0.0815134 0.641912
lowerneck -0.0138454 -2.18788 -0.878599
upperneck 0.123539 -2.93159 3.15592
head 0.10233 -1.46815 1.10537
rclavicle -5.56597e-015 -1.90833e-014
rhumerus -18.1421 -39.7803 -0.980426
rradius 22.6323
rwrist 4.15213
rhand -15.9585 -45.8489
rfingers 7.12502
rthumb 10.2402 -435.58
lclavicle -5.56597e-015 -1.90833e-014
lhumerus -4.89799 21.8947 2.22613
lradius 23.9654
lwrist 12.6221
lhand -21.9478 -9.91281
lfingers 7.12502
lthumb 4.4592 20.0202
rfemur 5.72449 14.242 3.36902
rtibia -1.08642
rfoot -31.2946 -29.3985
rtoes 28.09
lfemur 4.46403 -12.3466 -9.98891
ltibia -5.67508
lfoot -25.5039 3.84109
ltoes 50.0825
596
root 2.13874 18.3286 29.1936 365.328 -80.0949 2.01219
lowerback -1.40912 0.125459 -2.40366
upperback -2.64212 0.130061 -0.639338
thorax -1.92418 0.0911762 0.690955
lowerneck 0.088402 -2.27724 -0.980844
upperneck 0.143154 -3.05047 3.08689
head 0.0944006 -1.52801 1.102
rclavicle -2.76559e-014 -5.56597e-015
rhumerus -18.2276 -39.3325 -0.863043
rradius 22.6223
rwrist 4.11867
rhand -16.1672 -46.2146
rfingers 7.12502
rthumb 10.0388 -435.955
lclavicle -2.76559e-014 -5.56597e-015
lhumerus -3.94923 23.1388 2.37792
lradius 23.5994
lwrist 11.1794
lhand -21.4483 -10.1594
lfingers 7.12502
lthumb 4.94146 19.763
rfemur 6.36069 14.578 3.31332
rtibia -1.45228
rfoot -32.8344 -29.1323
rtoes 29.372
lfemur 4.6164 -12.0406 -10.2851
ltibia -5.66184
lfoot -25.2992 3.75048
ltoes 49.4649
597
root 2.11951 18.3094 29.1761 364.802 -79.9492 2.47579
lowerback -1.53958 0.265946 -2.54078
upperback -2.6661 0.319441 -0.69135
thorax -1.88213 0.187108 0.7143
lowerneck 0.0999681 -2.47177 -1.13679
upperneck 0.176178 -3.30926 2.95906
head 0.108455 -1.65682 1.08775
rclavicle 2.05183e-014 1.86858e-014
rhumerus -18.6946 -39.2931 -0.232759
rradius 22.6065
rwrist 4.49825
rhand -16.0934 -46.2495
rfingers 7.12502
rthumb 10.1101 -435.987
lclavicle 2.05183e-014 1.86858e-014
lhumerus -2.79045 24.3472 2.81783
lradius 23.2649
lwrist 9.69209
lhand -21.013 -10.2769
lfingers 7.12502
lthumb 5.36181 19.6353
rfemur 6.7929 15.0844 3.56868
rtibia -1.66739
rfoot -34.1263 -28.9256
rtoes 29.7896
lfemur 4.71965 -11.9295 -10.2727
ltibia -5.70598
lfoot -25.53 3.2333
ltoes 50.221
